<svg xmlns="http://www.w3.org/2000/svg" xmlns:xlink="http://www.w3.org/1999/xlink" width="157" height="157" viewBox="0 0 157 157">
  <defs>
    <filter id="Caminho_372" x="0" y="0" width="157" height="157" filterUnits="userSpaceOnUse">
      <feOffset dy="3" input="SourceAlpha"/>
      <feGaussianBlur stdDeviation="12.5" result="blur"/>
      <feFlood flood-opacity="0.161"/>
      <feComposite operator="in" in2="blur"/>
      <feComposite in="SourceGraphic"/>
    </filter>
    <linearGradient id="linear-gradient" x1="0.5" x2="0.5" y2="1" gradientUnits="objectBoundingBox">
      <stop offset="0" stop-color="#eda46e"/>
      <stop offset="1" stop-color="#e96f56"/>
    </linearGradient>
  </defs>
  <g id="Grupo_54" data-name="Grupo 54" transform="translate(-462.5 -84.5)">
    <g transform="matrix(1, 0, 0, 1, 462.5, 84.5)" filter="url(#Caminho_372)">
      <path id="Caminho_372-2" data-name="Caminho 372" d="M41,0A41,41,0,1,1,0,41,41,41,0,0,1,41,0Z" transform="translate(37.5 34.5)" fill="#fff"/>
    </g>
    <g id="arrow_back_black_24dp_1_" data-name="arrow_back_black_24dp (1)" transform="translate(511.235 130.235)">
      <path id="Caminho_216" data-name="Caminho 216" d="M0,0H59.53V59.53H0Z" fill="none"/>
      <path id="Caminho_217" data-name="Caminho 217" d="M40.588,20.76H12.882l12.1-12.1a2.5,2.5,0,0,0,0-3.522,2.47,2.47,0,0,0-3.5,0L5.143,21.479a2.47,2.47,0,0,0,0,3.5L21.489,41.322a2.473,2.473,0,1,0,3.5-3.5l-12.1-12.1H40.588a2.48,2.48,0,0,0,0-4.961Z" transform="translate(6.54 6.525)" fill="url(#linear-gradient)"/>
    </g>
  </g>
</svg>
