<svg xmlns="http://www.w3.org/2000/svg" width="116.223" height="106.024" viewBox="0 0 116.223 106.024">
  <g id="Grupo_53" data-name="Grupo 53" opacity="0.6">
    <g id="Grupo_33" data-name="Grupo 33" transform="translate(38.074 17.01)">
      <g id="Grupo_32" data-name="Grupo 32">
        <path id="Caminho_189" data-name="Caminho 189" d="M184.413,97.4a9.5,9.5,0,0,0-7.155,3.247A9.505,9.505,0,0,0,170.1,97.4a2.372,2.372,0,0,0,0,4.744,4.789,4.789,0,0,1,4.783,4.783,2.372,2.372,0,1,0,4.744,0,4.789,4.789,0,0,1,4.783-4.783,2.372,2.372,0,1,0,0-4.744Z" transform="translate(-167.731 -97.4)" fill="#707070"/>
      </g>
    </g>
    <g id="Grupo_35" data-name="Grupo 35" transform="translate(23.764 34.24)">
      <g id="Grupo_34" data-name="Grupo 34">
        <path id="Caminho_190" data-name="Caminho 190" d="M121.372,173.3a9.5,9.5,0,0,0-7.155,3.247,9.5,9.5,0,0,0-7.155-3.247,2.372,2.372,0,1,0,0,4.744,4.789,4.789,0,0,1,4.783,4.783,2.372,2.372,0,1,0,4.744,0,4.789,4.789,0,0,1,4.783-4.783,2.372,2.372,0,1,0,0-4.744Z" transform="translate(-104.69 -173.302)" fill="#707070"/>
      </g>
    </g>
    <g id="Grupo_37" data-name="Grupo 37" transform="translate(10.199 0)">
      <g id="Grupo_36" data-name="Grupo 36">
        <path id="Caminho_191" data-name="Caminho 191" d="M55.6,22.465A10.673,10.673,0,1,0,66.278,33.138,10.686,10.686,0,0,0,55.6,22.465Zm0,16.6a5.93,5.93,0,1,1,5.93-5.93A5.936,5.936,0,0,1,55.6,39.068Z" transform="translate(-44.931 -22.465)" fill="#707070"/>
      </g>
    </g>
    <g id="Grupo_39" data-name="Grupo 39" transform="translate(0 12.334)">
      <g id="Grupo_38" data-name="Grupo 38">
        <path id="Caminho_192" data-name="Caminho 192" d="M96.3,76.8A19.946,19.946,0,0,0,76.375,96.724v28.463a20.034,20.034,0,0,0,.116,2.135H75.427V126.25a2.372,2.372,0,0,0-4.744,0v1.071H44.132V126.25a2.372,2.372,0,0,0-4.744,0v1.071H31.783a2.372,2.372,0,0,0-2.372,2.372v11.385a2.372,2.372,0,0,0,2.372,2.372h7.605v2.372H31.783a2.372,2.372,0,0,0-2.372,2.372v6.641a2.372,2.372,0,0,0,2.372,2.372H36.3v8.539H16.366v-8.27a13.995,13.995,0,1,0-4.744,0v8.27H10.076a2.372,2.372,0,1,0,0,4.744H81.119a2.372,2.372,0,1,0,0-4.744H78.51v-8.539h4.526a2.372,2.372,0,0,0,2.372-2.372v-6.641a2.372,2.372,0,0,0-2.372-2.372h-7.61V143.45h3.321a2.372,2.372,0,1,0,0-4.744H34.155v-.949h46.7a19.913,19.913,0,0,0,13.071,7.207v20.782H89.754a2.372,2.372,0,0,0,0,4.744h16.392a2.372,2.372,0,1,0,0-4.744H98.671V144.964a19.949,19.949,0,0,0,17.552-19.778V96.724A19.947,19.947,0,0,0,96.3,76.8ZM7.5,145.322l4.123,4.123v3.182a9.25,9.25,0,1,1,4.744,0v-3.182l3.777-3.778a2.372,2.372,0,0,0-3.355-3.354l-2.795,2.8-3.141-3.141A2.372,2.372,0,1,0,7.5,145.322Zm34.973,20.424H41.049v-8.539h1.423Zm25.127,0H47.216v-8.539H67.6Zm6.167,0H72.343v-8.539h1.423Zm6.9-15.18v1.9H34.155v-1.9ZM44.132,143.45h26.55v2.372H44.132Zm-9.977-10.436v-.949H77.6q.177.481.379.949Zm77.324-7.827A15.2,15.2,0,0,1,98.671,140.18v-9.863l6.32-6.748a2.372,2.372,0,0,0-3.463-3.243l-2.858,3.051v-7.631l6.32-6.748a2.372,2.372,0,0,0-3.463-3.243l-2.858,3.052V104.67a2.372,2.372,0,0,0-4.744,0v10.68l-2.442-2.607a2.372,2.372,0,0,0-3.463,3.243l5.9,6.3v17.891a15.2,15.2,0,0,1-12.808-14.994V96.724a15.18,15.18,0,1,1,30.36,0v28.463Z" transform="translate(0 -76.8)" fill="#707070"/>
      </g>
    </g>
  </g>
</svg>
