<svg xmlns="http://www.w3.org/2000/svg" xmlns:xlink="http://www.w3.org/1999/xlink" width="303.088" height="787.777" viewBox="0 0 303.088 787.777"><defs><style>.a{opacity:0.5;fill:url(#a);}.b{fill:#fff;}.c{fill:#ff0;}</style><linearGradient id="a" y1="0.5" x2="1" y2="0.5" gradientUnits="objectBoundingBox"><stop offset="0" stop-color="#eda46e"/><stop offset="1" stop-color="#e96f56"/></linearGradient></defs><g transform="translate(-1339.88 -59.995)"><path class="a" d="M1618.592,833.515V753.431h8.155V724.574h-8.155V667.627h8.155V638.77h-8.155V581.738h8.155V552.88h-8.155V495.763h8.155V466.906h-8.155V409.959h8.155V381.1h-8.155V328.851h8.155V299.994h-8.155V247.743h8.155V218.886h-8.155V171.5h8.155V142.64h-8.155V88.829h7.934V60H1356.1V88.829h7.848V142.64H1356.1V171.5h7.848v47.388H1356.1v28.857h7.848v52.251H1356.1v28.857h7.848V381.1H1356.1v28.857h7.848v56.946H1356.1v28.857h7.848V552.88H1356.1v28.857h7.848V638.77H1356.1v28.857h7.848v56.946H1356.1v28.857h7.848v80.084h-24.07v14.258h303.088V833.515Z" transform="translate(0 0)"/><path class="b" d="M1390.48,515.4h36.627V485.6H1390.48Z" transform="translate(-7.399 -62.236)"/><path class="b" d="M1460.78,515.4h36.627V485.6H1460.78Z" transform="translate(-17.679 -62.236)"/><path class="b" d="M1531.08,515.4h36.627V485.6H1531.08v29.8Z" transform="translate(-27.959 -62.236)"/><path class="b" d="M1601.48,515.4h36.627V485.6H1601.48Z" transform="translate(-38.254 -62.236)"/><path class="b" d="M1390.48,417.8h36.627V388H1390.48Z" transform="translate(-7.399 -47.964)"/><path class="b" d="M1460.78,417.8h36.627V388H1460.78Z" transform="translate(-17.679 -47.964)"/><path class="b" d="M1531.08,417.8h36.627V388H1531.08v29.8Z" transform="translate(-27.959 -47.964)"/><path class="b" d="M1601.48,417.8h36.627V388H1601.48Z" transform="translate(-38.254 -47.964)"/><path class="c" d="M1390.48,616.2h36.627V586.4H1390.48Z" transform="translate(-7.399 -76.976)"/><path class="c" d="M1460.78,616.2h36.627V586.4H1460.78Z" transform="translate(-17.679 -76.976)"/><path class="c" d="M1531.08,616.2h36.627V586.4H1531.08v29.8Z" transform="translate(-27.959 -76.976)"/><path class="c" d="M1601.48,616.2h36.627V586.4H1601.48Z" transform="translate(-38.254 -76.976)"/><path class="b" d="M1390.48,717h36.627V687.2H1390.48Z" transform="translate(-7.399 -91.716)"/><path class="b" d="M1460.78,717h36.627V687.2H1460.78Z" transform="translate(-17.679 -91.716)"/><path class="b" d="M1531.08,717h36.627V687.2H1531.08V717Z" transform="translate(-27.959 -91.716)"/><path class="b" d="M1601.48,717h36.627V687.2H1601.48Z" transform="translate(-38.254 -91.716)"/><path class="b" d="M1390.48,817.8h36.627V788H1390.48Z" transform="translate(-7.399 -106.456)"/><path class="b" d="M1460.78,817.8h36.627V788H1460.78Z" transform="translate(-17.679 -106.456)"/><path class="b" d="M1531.08,817.8h36.627V788H1531.08v29.8Z" transform="translate(-27.959 -106.456)"/><path class="b" d="M1601.48,817.8h36.627V788H1601.48Z" transform="translate(-38.254 -106.456)"/><path class="b" d="M1481.78,961.119h60.7V893.5h-60.7Z" transform="translate(-20.75 -121.884)"/><path class="b" d="M1390.48,322.8h36.627V293H1390.48Z" transform="translate(-7.399 -34.072)"/><path class="b" d="M1460.78,322.8h36.627V293H1460.78Z" transform="translate(-17.679 -34.072)"/><path class="b" d="M1531.08,322.8h36.627V293H1531.08v29.8Z" transform="translate(-27.959 -34.072)"/><path class="b" d="M1601.48,322.8h36.627V293H1601.48Z" transform="translate(-38.254 -34.072)"/><path class="b" d="M1390.48,227.1h36.627V197.3H1390.48Z" transform="translate(-7.399 -20.078)"/><path class="b" d="M1460.78,227.1h36.627V197.3H1460.78Z" transform="translate(-17.679 -20.078)"/><path class="b" d="M1531.08,227.1h36.627V197.3H1531.08v29.8Z" transform="translate(-27.959 -20.078)"/><path class="b" d="M1601.38,227.1h36.627V197.3H1601.38Z" transform="translate(-38.239 -20.078)"/><path class="b" d="M1390.48,145.247h36.627v-29.8H1390.48Z" transform="translate(-7.399 -8.109)"/><path class="b" d="M1460.78,145.247h36.627v-29.8H1460.78Z" transform="translate(-17.679 -8.109)"/><path class="b" d="M1531.08,145.247h36.627v-29.8H1531.08v29.8Z" transform="translate(-27.959 -8.109)"/><path class="b" d="M1601.38,145.247h36.627v-29.8H1601.38Z" transform="translate(-38.239 -8.109)"/></g></svg>