<svg xmlns="http://www.w3.org/2000/svg" width="125.516" height="114.5" viewBox="0 0 125.516 114.5"><defs><style>.a{fill:#fff;}</style></defs><g transform="translate(0 0)"><g transform="translate(41.116 18.37)"><g transform="translate(0 0)"><path class="a" d="M185.747,97.4a10.26,10.26,0,0,0-7.727,3.507,10.265,10.265,0,0,0-7.73-3.507,2.562,2.562,0,1,0,0,5.123,5.172,5.172,0,0,1,5.165,5.165,2.562,2.562,0,1,0,5.123,0,5.172,5.172,0,0,1,5.165-5.165,2.562,2.562,0,1,0,0-5.123Z" transform="translate(-167.728 -97.4)"/></g></g><g transform="translate(25.666 36.975)"><g transform="translate(0 0)"><path class="a" d="M122.706,173.3a10.259,10.259,0,0,0-7.727,3.507,10.259,10.259,0,0,0-7.727-3.507,2.562,2.562,0,1,0,0,5.123,5.172,5.172,0,0,1,5.165,5.165,2.562,2.562,0,1,0,5.123,0,5.172,5.172,0,0,1,5.165-5.165,2.562,2.562,0,1,0,0-5.123Z" transform="translate(-104.69 -173.3)"/></g></g><g transform="translate(11.017)"><g transform="translate(0)"><path class="a" d="M56.453,22.465A11.526,11.526,0,1,0,67.985,33.993,11.526,11.526,0,0,0,56.453,22.465Zm0,17.927a6.4,6.4,0,1,1,6.4-6.4,6.4,6.4,0,0,1-6.4,6.4Z" transform="translate(-44.932 -22.465)"/></g></g><g transform="translate(0 13.32)"><path class="a" d="M104,76.8A21.541,21.541,0,0,0,82.481,98.317v30.739a21.642,21.642,0,0,0,.125,2.306H81.457V130.2a2.562,2.562,0,1,0-5.123,0v1.157H47.66V130.2a2.562,2.562,0,1,0-5.123,0v1.157H34.324a2.562,2.562,0,0,0-2.562,2.562v12.3a2.562,2.562,0,0,0,2.562,2.562h8.213v2.562H34.324a2.562,2.562,0,0,0-2.562,2.562v7.172a2.562,2.562,0,0,0,2.562,2.562H39.2v9.222H17.675v-8.931a15.114,15.114,0,1,0-5.123,0v8.931h-1.67a2.562,2.562,0,1,0,0,5.123H87.6a2.562,2.562,0,1,0,0-5.123H84.787v-9.222h4.888a2.562,2.562,0,0,0,2.562-2.562V153.9a2.562,2.562,0,0,0-2.562-2.562H81.456v-2.562h3.587a2.562,2.562,0,0,0,0-5.123H36.886V142.63H87.319a21.5,21.5,0,0,0,14.116,7.783v22.443H96.93a2.562,2.562,0,0,0,0,5.123h17.7a2.562,2.562,0,1,0,0-5.123H106.56V150.414a21.544,21.544,0,0,0,18.955-21.359V98.317A21.542,21.542,0,0,0,104,76.8Zm-95.9,74,4.453,4.453v3.436a9.99,9.99,0,1,1,5.123,0v-3.436l4.079-4.08a2.562,2.562,0,1,0-3.623-3.622l-3.018,3.024-3.392-3.392A2.562,2.562,0,1,0,8.1,150.8Zm37.769,22.057H44.331v-9.222h1.537Zm27.136,0H50.991v-9.222H73Zm6.66,0H78.127v-9.222h1.537Zm7.452-16.394v2.052H36.886v-2.052ZM47.66,148.779H76.333v2.562H47.66Zm-10.775-11.27v-1.025H83.8q.191.519.409,1.025Zm83.506-8.453a16.415,16.415,0,0,1-13.832,16.192V134.6l6.825-7.287a2.562,2.562,0,0,0-3.74-3.5l-3.087,3.295V118.86l6.825-7.287a2.562,2.562,0,0,0-3.74-3.5l-3.086,3.3V106.9a2.562,2.562,0,0,0-5.123,0v11.534L98.8,115.617a2.562,2.562,0,1,0-3.74,3.5l6.372,6.8v19.321A16.415,16.415,0,0,1,87.6,129.051V98.317a16.394,16.394,0,1,1,32.787,0v30.739Z" transform="translate(0.002 -76.8)"/></g></g></svg>