<svg xmlns="http://www.w3.org/2000/svg" width="121.346" height="120.09" viewBox="0 0 121.346 120.09"><defs><style>.a{fill:#fff;}</style></defs><g transform="translate(0)"><path class="a" d="M177.511,477.867H121.468a2,2,0,0,0-2,2v4a2,2,0,0,0,4,0v-2h54.041a2,2,0,0,0,0-4Z" transform="translate(-88.187 -365.783)"/><path class="a" d="M187.733,167.61a2,2,0,0,0,2,2h8.006a2,2,0,0,0,2-2V155.6a2,2,0,0,0-2-2h-8.006a2,2,0,0,0-2,2Zm4-10.007h4v8h-4Z" transform="translate(-142.442 -117.573)"/><path class="a" d="M409.6,372.41a2,2,0,0,0,2,2h8.006a2,2,0,0,0,2-2V360.4a2,2,0,0,0-2-2H411.6a2,2,0,0,0-2,2Zm4-10.007h4v8h-4Z" transform="translate(-312.27 -274.336)"/><path class="a" d="M409.6,372.41a2,2,0,0,0,2,2h8.006a2,2,0,0,0,2-2V360.4a2,2,0,0,0-2-2H411.6a2,2,0,0,0-2,2Zm4-10.007h4v8h-4Z" transform="translate(-400.602 -274.336)"/><path class="a" d="M411.6,169.612h8.006a2,2,0,0,0,2-2V155.6a2,2,0,0,0-2-2H411.6a2,2,0,0,0-2,2v12.006a2,2,0,0,0,2,2Zm2-12.006h4v8h-4Z" transform="translate(-312.27 -117.574)"/><path class="a" d="M411.6,169.612h8.006a2,2,0,0,0,2-2V155.6a2,2,0,0,0-2-2H411.6a2,2,0,0,0-2,2v12.006a2,2,0,0,0,2,2Zm2-12.006h4v8h-4Z" transform="translate(-400.602 -117.574)"/><path class="a" d="M273.067,167.61a2,2,0,0,0,2,2h8a2,2,0,0,0,2-2V155.6a2,2,0,0,0-2-2h-8.006a2,2,0,0,0-2,2Zm4-10.007h4v8h-4V157.6Z" transform="translate(-207.761 -117.573)"/><path class="a" d="M418.554,102.4H394.534a2,2,0,0,0,0,4h22.017v80.429a5.718,5.718,0,0,0-3.03-.279,7.993,7.993,0,0,0-13.954,0,5.888,5.888,0,0,0-1.028-.091,6,6,0,0,0,0,12.006H414.55a6.012,6.012,0,0,0,6-6V104.4a2,2,0,0,0-2-2Zm-4,92.069H398.538a2,2,0,0,1,0-4,1.978,1.978,0,0,1,1.085.326,2,2,0,0,0,3.034-1.231,3.987,3.987,0,0,1,7.773,0,2,2,0,0,0,3.034,1.231,2.039,2.039,0,0,1,3.087,1.675A2,2,0,0,1,414.551,194.469Z" transform="translate(-299.207 -78.382)"/><path class="a" d="M394.611,102.4h24.928a2,2,0,1,1,0,4H396.686v80.429a6.15,6.15,0,0,1,3.145-.279,8.452,8.452,0,0,1,14.483,0,6.337,6.337,0,0,1,1.068-.091,6,6,0,0,1,0,12.006H398.766a6.129,6.129,0,0,1-6.23-6V104.4a2.039,2.039,0,0,1,2.075-2Zm4.155,92.069h16.619a2,2,0,1,0,0-4,2.109,2.109,0,0,0-1.126.326,2.152,2.152,0,0,1-1.907.172,2.02,2.02,0,0,1-1.246-1.4,4.176,4.176,0,0,0-8.069,0,2.018,2.018,0,0,1-1.246,1.4,2.152,2.152,0,0,1-1.907-.172,2.124,2.124,0,0,0-3.2,1.675,2.039,2.039,0,0,0,2.086,2Z" transform="translate(-392.536 -78.382)"/><path class="a" d="M275.069,67.213h8a2,2,0,0,0,2-2V53.2a2,2,0,0,0-2-2h-8.006a2,2,0,0,0-2,2V65.208a2,2,0,0,0,2,2Zm2-12.006h4v8h-4Z" transform="translate(-207.761 -39.191)"/><path class="a" d="M273.067,270.01a2,2,0,0,0,2,2h8a2,2,0,0,0,2-2V258a2,2,0,0,0-2-2h-8.006a2,2,0,0,0-2,2Zm4-10.007h4v8h-4V260Z" transform="translate(-207.761 -195.955)"/><path class="a" d="M189.734,67.212h8.006a2,2,0,0,0,2-2V53.2a2,2,0,0,0-2-2h-8.006a2,2,0,0,0-2,2V65.211A2,2,0,0,0,189.734,67.212Zm2-12.006h4v8h-4Z" transform="translate(-142.443 -39.191)"/><path class="a" d="M248.047,410.265a2,2,0,1,0,2.842,0A2.1,2.1,0,0,0,248.047,410.265Z" transform="translate(-188.165 -313.608)"/><path class="a" d="M187.733,270.01a2,2,0,0,0,2,2h8.006a2,2,0,0,0,2-2V258a2,2,0,0,0-2-2h-8.006a2,2,0,0,0-2,2v12.006Zm4-10.007h4v8h-4Z" transform="translate(-142.442 -195.955)"/><path class="a" d="M170.667,360.4a2,2,0,0,0,2,2h6v18.009a2,2,0,1,0,4,0V362.4h16.013v18.009a2,2,0,0,0,4,0V362.4h6a2,2,0,1,0,0-4H172.668A2,2,0,0,0,170.667,360.4Z" transform="translate(-129.379 -274.337)"/><path class="a" d="M409.6,270.01a2,2,0,0,0,2,2h8.006a2,2,0,0,0,2-2V258a2,2,0,0,0-2-2H411.6a2,2,0,0,0-2,2Zm4-10.007h4v8h-4Z" transform="translate(-312.27 -195.955)"/><path class="a" d="M409.6,270.01a2,2,0,0,0,2,2h8.006a2,2,0,0,0,2-2V258a2,2,0,0,0-2-2H411.6a2,2,0,0,0-2,2Zm4-10.007h4v8h-4Z" transform="translate(-400.602 -195.955)"/><path class="a" d="M190.575,0h-52.04a2,2,0,0,0-2,2V106.079a2,2,0,1,0,4,0V4h48.036V106.079a2,2,0,1,0,4,0V2a2,2,0,0,0-2-2Z" transform="translate(-103.252)"/></g></svg>